<svg xmlns="http://www.w3.org/2000/svg"><symbol id="check-icon" viewBox="0 0 16 16"><g clip-path="url(#a)"><path fill="#FEFEFE" d="M8 1.333A6.67 6.67 0 0 0 1.333 8 6.67 6.67 0 0 0 8 14.667 6.67 6.67 0 0 0 14.667 8 6.67 6.67 0 0 0 8 1.333zm-1.333 10L3.333 8l.94-.94 2.394 2.387 5.06-5.06.94.946-6 6z"/></g><defs><clipPath id="a"><path fill="#fff" d="M0 0h16v16H0z"/></clipPath></defs></symbol><symbol id="checked" viewBox="0 0 16 16"><g clip-path="url(#a)"><path fill="#FEFEFE" d="M12.667 2H3.333C2.593 2 2 2.6 2 3.333v9.334C2 13.4 2.593 14 3.333 14h9.334c.74 0 1.333-.6 1.333-1.333V3.333C14 2.6 13.407 2 12.667 2zm-6 9.333L3.333 8l.94-.94 2.394 2.387 5.06-5.06.94.946-6 6z"/></g><defs><clipPath id="a"><path fill="#fff" d="M0 0h16v16H0z"/></clipPath></defs></symbol><symbol id="eye-icon" viewBox="0 0 16 16"><g clip-path="url(#a)"><path fill="#FEFEFE" d="M8 3C4.667 3 1.82 5.073.667 8c1.153 2.927 4 5 7.333 5s6.18-2.073 7.333-5c-1.153-2.927-4-5-7.333-5zm0 8.333a3.335 3.335 0 0 1 0-6.666 3.335 3.335 0 0 1 0 6.666zM8 6c-1.107 0-2 .893-2 2s.893 2 2 2 2-.893 2-2-.893-2-2-2z"/></g><defs><clipPath id="a"><path fill="#fff" d="M0 0h16v16H0z"/></clipPath></defs></symbol><symbol id="close-eye-icon" viewBox="0 0 16 16"><g clip-path="url(#a)"><path fill="#FEFEFE" d="M8 4.667A3.335 3.335 0 0 1 11.333 8c0 .43-.086.84-.236 1.217l1.95 1.95A7.917 7.917 0 0 0 15.337 8c-1.157-2.927-4-5-7.337-5a7.8 7.8 0 0 0-2.657.467l1.44 1.436A3.35 3.35 0 0 1 8 4.667zM1.333 2.85l1.52 1.52.304.303A7.896 7.896 0 0 0 .667 8c1.153 2.927 4 5 7.333 5 1.033 0 2.02-.2 2.923-.563l.284.283 1.943 1.947.85-.847L2.183 2l-.85.85zM5.02 6.533l1.03 1.03C6.02 7.707 6 7.85 6 8c0 1.103.897 2 2 2 .15 0 .293-.02.433-.05l1.03 1.03A3.28 3.28 0 0 1 8 11.333 3.335 3.335 0 0 1 4.667 8c0-.527.133-1.02.353-1.467zm2.87-.523l2.1 2.1L10 8c0-1.103-.897-2-2-2l-.11.01z"/></g><defs><clipPath id="a"><path fill="#fff" d="M0 0h16v16H0z"/></clipPath></defs></symbol><symbol id="warning-icon" viewBox="0 0 16 16"><g clip-path="url(#a)"><path fill="#FEFEFE" d="M.444 14.222h15.112L8 1.333.444 14.223zm8-2.222h-.888v-.889h.888V12zm0-2.222h-.888V6.667h.888v3.11z"/></g><defs><clipPath id="a"><path fill="#fff" d="M0 0h16v16H0z"/></clipPath></defs></symbol><symbol id="un-check" viewBox="0 0 16 16"><g clip-path="url(#a)"><path fill="#FEFEFE" d="M12.667 3.333v9.334H3.333V3.333h9.334zm0-1.333H3.333C2.6 2 2 2.6 2 3.333v9.334C2 13.4 2.6 14 3.333 14h9.334C13.4 14 14 13.4 14 12.667V3.333C14 2.6 13.4 2 12.667 2z"/></g><defs><clipPath id="a"><path fill="#fff" d="M0 0h16v16H0z"/></clipPath></defs></symbol></svg>